<?xml version="1.0" encoding="UTF-8" standalone="no"?>
<svg
   xmlns:dc="http://purl.org/dc/elements/1.1/"
   xmlns:cc="http://creativecommons.org/ns#"
   xmlns:rdf="http://www.w3.org/1999/02/22-rdf-syntax-ns#"
   xmlns:svg="http://www.w3.org/2000/svg"
   xmlns="http://www.w3.org/2000/svg"
   xmlns:sodipodi="http://sodipodi.sourceforge.net/DTD/sodipodi-0.dtd"
   xmlns:inkscape="http://www.inkscape.org/namespaces/inkscape"
   width="200"
   height="150"
   viewBox="0 0 52.916665 39.687501"
   version="1.1"
   id="svg8"
   inkscape:version="1.0.1 (3bc2e813f5, 2020-09-07)"
   sodipodi:docname="ifood.svg">
  <defs
     id="defs2" />
  <sodipodi:namedview
     id="base"
     pagecolor="#ffffff"
     bordercolor="#666666"
     borderopacity="1.0"
     inkscape:pageopacity="0.0"
     inkscape:pageshadow="2"
     inkscape:zoom="1.4438234"
     inkscape:cx="91.932261"
     inkscape:cy="139.87889"
     inkscape:document-units="mm"
     inkscape:current-layer="layer1"
     inkscape:document-rotation="0"
     showgrid="false"
     inkscape:window-width="1312"
     inkscape:window-height="704"
     inkscape:window-x="54"
     inkscape:window-y="27"
     inkscape:window-maximized="1"
     units="px" />
  <metadata
     id="metadata5">
    <rdf:RDF>
      <cc:Work
         rdf:about="">
        <dc:format>image/svg+xml</dc:format>
        <dc:type
           rdf:resource="http://purl.org/dc/dcmitype/StillImage" />
        <dc:title></dc:title>
      </cc:Work>
    </rdf:RDF>
  </metadata>
  <g
     inkscape:label="Layer 1"
     inkscape:groupmode="layer"
     id="layer1">
    <path
       style="fill:#000000;stroke-width:1"
       d="m 22.144687,31.425903 c -3.03755,-0.73717 -5.40296,-2.97318 -6.32233,-5.97647 -0.1412,-0.46124 0.12552,-0.24771 0.88114,0.70542 0.77436,0.97678 1.57232,1.60746 2.79593,2.20984 1.60488,0.79009 1.85871,0.83686 4.04628,0.74565 2.49146,-0.10389 4.4923,-0.80688 6.36762,-2.23727 l 0.88098,-0.67195 -0.97234,-0.77272 -0.97234,-0.77272 h 3.09692 c 2.82793,0 3.08441,0.0402 2.95289,0.46302 -0.0792,0.25466 -0.37264,1.63148 -0.65207,3.05959 -0.27942,1.42811 -0.56057,2.64909 -0.62477,2.71329 -0.0642,0.0642 -0.2741,-0.36011 -0.46644,-0.94292 -0.19234,-0.5828 -0.43367,-1.05965 -0.53627,-1.05965 -0.1026,0 -0.4942,0.242 -0.87021,0.53777 -1.08364,0.85239 -3.33884,1.7459 -5.23021,2.07221 -2.09613,0.36163 -2.61949,0.35289 -4.37478,-0.0731 z m -10.94278,-11.96243 c 0.95621,-4.75914 0.97253,-4.93221 0.47749,-5.06166 -0.75176,-0.19659 -0.55894,-1.490651 0.23901,-1.604051 0.4024,-0.0572 0.74815,-0.43965 1.08421,-1.19936 0.96248,-2.1758495 3.54538,-3.4424895 5.78828,-2.8385395 0.96711,0.26041 1.03589,0.3407 0.92708,1.08213 -0.11575,0.7886095 -0.13633,0.7983395 -1.34833,0.6375695 -1.4252,-0.18906 -2.27241,0.32103 -2.56153,1.54227 -0.16933,0.71523 -0.15105,0.7276 1.07535,0.7276 1.02896,0 1.21947,0.0734 1.08702,0.418511 -0.0883,0.23019 -0.1606,0.58085 -0.1606,0.77926 0,0.24259 -0.41124,0.38715 -1.25569,0.44138 l -1.25568,0.0806 -0.71211,3.57188 c -0.39165,1.96453 -0.84716,4.19695 -1.01224,4.96093 l -0.30014,1.38907 h -1.5311 -1.53109 z m 7.53752,2.14753 c -1.65352,-0.58881 -2.18126,-1.62264 -1.87405,-3.67122 0.52227,-3.48278 4.4183,-6.107321 7.7388,-5.213201 2.19741,0.591701 2.89094,2.317891 1.94467,4.840301 -0.95631,2.54922 -3.63219,4.47914 -6.14414,4.43135 -0.33574,-0.006 -1.08512,-0.18064 -1.66528,-0.38723 z m 10.53563,0.10852 c -1.82466,-0.52826 -2.61395,-2.39892 -1.8982,-4.49884 1.12872,-3.31155 4.48914,-5.317251 7.5347,-4.497171 1.631971,0.439451 2.349181,1.371931 2.326151,3.024331 -0.0548,3.92706 -4.224231,7.05401 -7.962651,5.97168 z m 8.840871,-0.23465 c -0.92641,-0.72872 -1.0877,-1.65438 -0.58783,-3.37384 0.97363,-3.34918 3.21712,-5.437191 5.84207,-5.437191 h 1.37396 l 0.35736,-1.88044 0.35736,-1.8804295 1.55491,-0.0804 c 1.49835,-0.0774 1.55065,-0.0582 1.43758,0.52917 -0.0645,0.33523 -0.64176,3.2586595 -1.2827,6.4964905 l -1.16536,5.88698 h -1.55 -1.55002 l 0.18418,-0.85989 0.18417,-0.8599 -0.62978,0.58269 c -0.76512,0.7079 -2.361,1.40169 -3.22422,1.40169 -0.34885,0 -0.9346,-0.23624 -1.30168,-0.52498 z M 5.7621472,21.149953 c 0.0732,-0.32742 0.43685,-2.14312 0.808,-4.03489 0.9336,-4.758601 0.71811,-4.365631 2.39403,-4.365631 0.89411,0 1.4373798,0.11327 1.4373798,0.29969 0,0.164831 -0.37496,2.188891 -0.8332398,4.497921 l -0.83324,4.19822 h -1.55305 c -1.47365,0 -1.54624,-0.0304 -1.41988,-0.59531 z m 2.12083,-10.649481 c 0.0755,-0.3638 0.19913,-0.9591095 0.27466,-1.3229095 0.12755,-0.61433 0.24738,-0.66146 1.68172,-0.66146 h 1.5443898 l -0.26157,1.32291 -0.26158,1.3229195 H 9.3031172 c -1.52154,0 -1.55431,-0.0153 -1.42014,-0.66146 z"
       id="path212"
       inkscape:export-xdpi="90.270378"
       inkscape:export-ydpi="90.270378" />
  </g>
</svg>
